<svg width="254" height="32" viewBox="0 0 254 32" fill="none" xmlns="http://www.w3.org/2000/svg">
<path d="M60.1953 24.4297V29H45.0586V24.4297H60.1953ZM46.9727 0.5625V29H41.1133V0.5625H46.9727ZM58.2227 12.1445V16.5977H45.0586V12.1445H58.2227ZM60.1758 0.5625V5.15234H45.0586V0.5625H60.1758Z" fill="#9B4DFF"/>
<path d="M72.3438 29H66.1523L66.1914 24.4297H72.3438C73.8802 24.4297 75.1758 24.0846 76.2305 23.3945C77.2852 22.6914 78.0794 21.6693 78.6133 20.3281C79.1602 18.987 79.4336 17.3659 79.4336 15.4648V14.0781C79.4336 12.6198 79.2773 11.3372 78.9648 10.2305C78.6654 9.1237 78.2161 8.19271 77.6172 7.4375C77.0182 6.68229 76.2826 6.11589 75.4102 5.73828C74.5378 5.34766 73.5352 5.15234 72.4023 5.15234H66.0352V0.5625H72.4023C74.3034 0.5625 76.0417 0.888021 77.6172 1.53906C79.2057 2.17708 80.5794 3.09505 81.7383 4.29297C82.8971 5.49089 83.7891 6.92318 84.4141 8.58984C85.0521 10.2435 85.3711 12.0859 85.3711 14.1172V15.4648C85.3711 17.4831 85.0521 19.3255 84.4141 20.9922C83.7891 22.6589 82.8971 24.0911 81.7383 25.2891C80.5924 26.474 79.2188 27.3919 77.6172 28.043C76.0286 28.681 74.2708 29 72.3438 29ZM69.4727 0.5625V29H63.6133V0.5625H69.4727Z" fill="#9B4DFF"/>
<path d="M105.332 0.5625H111.172V19.3516C111.172 21.5391 110.703 23.3815 109.766 24.8789C108.841 26.3763 107.559 27.5026 105.918 28.2578C104.29 29.013 102.415 29.3906 100.293 29.3906C98.1706 29.3906 96.2826 29.013 94.6289 28.2578C92.9883 27.5026 91.6992 26.3763 90.7617 24.8789C89.8372 23.3815 89.375 21.5391 89.375 19.3516V0.5625H95.2344V19.3516C95.2344 20.6276 95.4362 21.6693 95.8398 22.4766C96.2435 23.2839 96.8229 23.8763 97.5781 24.2539C98.3464 24.6315 99.2513 24.8203 100.293 24.8203C101.361 24.8203 102.266 24.6315 103.008 24.2539C103.763 23.8763 104.336 23.2839 104.727 22.4766C105.13 21.6693 105.332 20.6276 105.332 19.3516V0.5625Z" fill="#9B4DFF"/>
<path d="M132.48 19.5664H138.32C138.203 21.4805 137.676 23.1797 136.738 24.6641C135.814 26.1484 134.518 27.3073 132.852 28.1406C131.198 28.974 129.206 29.3906 126.875 29.3906C125.052 29.3906 123.418 29.0781 121.973 28.4531C120.527 27.8151 119.29 26.9036 118.262 25.7188C117.246 24.5339 116.471 23.1016 115.938 21.4219C115.404 19.7422 115.137 17.8607 115.137 15.7773V13.8047C115.137 11.7214 115.41 9.83984 115.957 8.16016C116.517 6.46745 117.311 5.02865 118.34 3.84375C119.382 2.65885 120.625 1.7474 122.07 1.10938C123.516 0.471354 125.13 0.152344 126.914 0.152344C129.284 0.152344 131.283 0.582031 132.91 1.44141C134.551 2.30078 135.82 3.48568 136.719 4.99609C137.63 6.50651 138.177 8.22526 138.359 10.1523H132.5C132.435 9.00651 132.207 8.03646 131.816 7.24219C131.426 6.4349 130.833 5.82943 130.039 5.42578C129.258 5.00911 128.216 4.80078 126.914 4.80078C125.938 4.80078 125.085 4.98307 124.355 5.34766C123.626 5.71224 123.014 6.26562 122.52 7.00781C122.025 7.75 121.654 8.6875 121.406 9.82031C121.172 10.9401 121.055 12.2552 121.055 13.7656V15.7773C121.055 17.2487 121.165 18.5443 121.387 19.6641C121.608 20.7708 121.947 21.7083 122.402 22.4766C122.871 23.2318 123.47 23.8047 124.199 24.1953C124.941 24.5729 125.833 24.7617 126.875 24.7617C128.099 24.7617 129.108 24.5664 129.902 24.1758C130.697 23.7852 131.302 23.2057 131.719 22.4375C132.148 21.6693 132.402 20.7122 132.48 19.5664Z" fill="#9B4DFF"/>
<path d="M153.73 5.42578L145.996 29H139.766L150.332 0.5625H154.297L153.73 5.42578ZM160.156 29L152.402 5.42578L151.777 0.5625H155.781L166.406 29H160.156ZM159.805 18.4141V23.0039H144.785V18.4141H159.805Z" fill="#9B4DFF"/>
<path d="M179.336 0.5625V29H173.496V0.5625H179.336ZM188.086 0.5625V5.15234H164.883V0.5625H188.086Z" fill="#9B4DFF"/>
<path d="M197.656 0.5625V29H191.816V0.5625H197.656Z" fill="#9B4DFF"/>
<path d="M226.504 14.1172V15.4648C226.504 17.6263 226.211 19.5664 225.625 21.2852C225.039 23.0039 224.212 24.4688 223.145 25.6797C222.077 26.8776 220.801 27.7956 219.316 28.4336C217.845 29.0716 216.211 29.3906 214.414 29.3906C212.63 29.3906 210.996 29.0716 209.512 28.4336C208.04 27.7956 206.764 26.8776 205.684 25.6797C204.603 24.4688 203.763 23.0039 203.164 21.2852C202.578 19.5664 202.285 17.6263 202.285 15.4648V14.1172C202.285 11.9427 202.578 10.0026 203.164 8.29688C203.75 6.57812 204.577 5.11328 205.645 3.90234C206.725 2.69141 208.001 1.76693 209.473 1.12891C210.957 0.490885 212.591 0.171875 214.375 0.171875C216.172 0.171875 217.806 0.490885 219.277 1.12891C220.762 1.76693 222.038 2.69141 223.105 3.90234C224.186 5.11328 225.02 6.57812 225.605 8.29688C226.204 10.0026 226.504 11.9427 226.504 14.1172ZM220.586 15.4648V14.0781C220.586 12.5677 220.449 11.2396 220.176 10.0938C219.902 8.94792 219.499 7.98438 218.965 7.20312C218.431 6.42188 217.78 5.83594 217.012 5.44531C216.243 5.04167 215.365 4.83984 214.375 4.83984C213.385 4.83984 212.507 5.04167 211.738 5.44531C210.983 5.83594 210.339 6.42188 209.805 7.20312C209.284 7.98438 208.887 8.94792 208.613 10.0938C208.34 11.2396 208.203 12.5677 208.203 14.0781V15.4648C208.203 16.9622 208.34 18.2904 208.613 19.4492C208.887 20.5951 209.29 21.5651 209.824 22.3594C210.358 23.1406 211.009 23.7331 211.777 24.1367C212.546 24.5404 213.424 24.7422 214.414 24.7422C215.404 24.7422 216.283 24.5404 217.051 24.1367C217.819 23.7331 218.464 23.1406 218.984 22.3594C219.505 21.5651 219.902 20.5951 220.176 19.4492C220.449 18.2904 220.586 16.9622 220.586 15.4648Z" fill="#9B4DFF"/>
<path d="M253.867 0.5625V29H248.008L236.582 9.9375V29H230.723V0.5625H236.582L248.027 19.6445V0.5625H253.867Z" fill="#9B4DFF"/>
<path fill-rule="evenodd" clip-rule="evenodd" d="M20.4446 9.34824C19.129 8.4692 17.5822 8 16 8V0C19.1645 0 22.2579 0.938384 24.8891 2.69649C27.5203 4.45458 29.571 6.95345 30.7821 9.87704C31.993 12.8006 32.3099 16.0178 31.6926 19.1214C31.0752 22.2251 29.5514 25.0761 27.3137 27.3137C25.0761 29.5514 22.2251 31.0752 19.1214 31.6926C16.0178 32.3099 12.8006 31.993 9.87704 30.7821C6.95345 29.571 4.45458 27.5203 2.69649 24.8891C0.938384 22.2579 0 19.1645 0 16H8C8 17.5822 8.4692 19.129 9.34824 20.4446C10.2273 21.7602 11.4767 22.7855 12.9386 23.391C14.4003 23.9966 16.0089 24.155 17.5607 23.8462C19.1126 23.5376 20.538 22.7757 21.6569 21.6569C22.7757 20.538 23.5376 19.1126 23.8462 17.5607C24.155 16.0089 23.9966 14.4003 23.391 12.9386C22.7855 11.4767 21.7602 10.2273 20.4446 9.34824Z" fill="#9B4DFF"/>
<path fill-rule="evenodd" clip-rule="evenodd" d="M8 3.465e-06C8 1.05058 7.79308 2.09087 7.39104 3.06147C6.989 4.03207 6.39972 4.91399 5.65685 5.65686C4.91399 6.39973 4.03208 6.989 3.06147 7.39104C2.09086 7.79308 1.05057 8 3.49688e-07 8L0 16C2.10115 16 4.18172 15.5862 6.12294 14.7821C8.06416 13.978 9.828 12.7994 11.3137 11.3137C12.7994 9.828 13.978 8.06416 14.7821 6.12294C15.5862 4.18172 16 2.10115 16 0L8 3.465e-06Z" fill="#9B4DFF"/>
</svg>
